<?xml version="1.0" encoding="UTF-8" standalone="no"?><!DOCTYPE svg PUBLIC "-//W3C//DTD SVG 1.1//EN" "http://www.w3.org/Graphics/SVG/1.1/DTD/svg11.dtd"><svg width="100%" height="100%" viewBox="0 0 1920 1080" version="1.1" xmlns="http://www.w3.org/2000/svg" xmlns:xlink="http://www.w3.org/1999/xlink" xml:space="preserve" xmlns:serif="http://www.serif.com/" style="fill-rule:evenodd;clip-rule:evenodd;stroke-linejoin:round;stroke-miterlimit:2;"><g transform="matrix(0.984268,-0.176681,0.176681,0.984268,74.3086,-89.1683)"><text x="-103.169px" y="802.849px" style="font-family:'BrushScriptMT', 'Brush Script MT', cursive;font-style:italic;font-size:647.537px;fill:#8d0100;">SiteArt</text></g><g transform="matrix(0.984268,-0.176681,0.176681,0.984268,75.4667,-90.1618)"><text x="-108.169px" y="795.849px" style="font-family:'BrushScriptMT', 'Brush Script MT', cursive;font-style:italic;font-size:647.537px;fill:#f00;">SiteArt</text></g><g><g><path d="M328.692,838.17c-0.986,-11.171 -4.096,-21.922 -9.241,-31.952c-10.393,-20.259 -27.868,-35.242 -49.254,-42.247c-0.177,-0.058 -0.359,-0.116 -0.536,-0.174c-21.807,-6.985 -45.014,-5.07 -65.347,5.391c-20.329,10.46 -35.322,28.208 -42.221,49.975c-6.854,21.632 -4.923,44.619 5.439,64.724c10.355,20.093 27.966,35.056 49.597,42.139l0.039,0.013c15.848,5.184 32.698,5.659 48.727,1.378l-3.483,-12.873c-13.516,3.611 -27.73,3.206 -41.104,-1.167c-0.011,-0.004 -0.02,-0.007 -0.031,-0.011c-37.474,-12.273 -58.305,-52.714 -46.438,-90.164c5.82,-18.368 18.471,-33.343 35.623,-42.168c17.156,-8.827 36.737,-10.442 55.135,-4.549c0.151,0.047 0.3,0.096 0.451,0.146c18.007,5.897 32.735,18.538 41.505,35.636c8.977,17.498 10.582,37.322 4.523,55.823l-0.783,2.388c-3.572,10.909 -15.385,16.865 -26.331,13.28c-10.947,-3.585 -16.947,-15.376 -13.374,-26.284l13.113,-40.038l-12.706,-4.162l-2.094,6.395c-3.55,-4.527 -8.434,-8.091 -14.306,-10.014c-15.763,-5.163 -32.774,3.416 -37.918,19.123l-4.561,13.926c-5.144,15.707 3.495,32.686 19.258,37.849c9.568,3.134 19.593,1.204 27.148,-4.307c3.594,9.228 11.147,16.849 21.293,20.172c17.953,5.88 37.325,-3.889 43.184,-21.778l0.782,-2.389c3.618,-11.044 4.933,-22.511 3.911,-34.081Zm-71.106,19.099c-2.858,8.726 -12.308,13.492 -21.065,10.624c-8.758,-2.869 -13.557,-12.301 -10.699,-21.027l4.561,-13.927c2.858,-8.726 12.308,-13.492 21.065,-10.624c8.758,2.869 13.557,12.301 10.699,21.028l-4.561,13.926Z" style="fill:#8d0100;fill-rule:nonzero;"/><path d="M1719.31,569.796l-1456.62,345.446l2.999,12.649l1456.62,-345.445l-2.999,-12.65Z" style="fill:#8d0100;"/></g><path d="M1749.37,567.522l-27.089,14.271l-3.313,-10.631l30.402,-3.64Z" style="fill:#8d0100;"/></g><g><g><path d="M324.692,832.17c-0.986,-11.171 -4.096,-21.922 -9.241,-31.952c-10.393,-20.259 -27.868,-35.242 -49.254,-42.247c-0.177,-0.058 -0.359,-0.116 -0.536,-0.174c-21.807,-6.985 -45.014,-5.07 -65.347,5.391c-20.329,10.46 -35.322,28.208 -42.221,49.975c-6.854,21.632 -4.923,44.619 5.439,64.724c10.355,20.093 27.966,35.056 49.597,42.139l0.039,0.013c15.848,5.184 32.698,5.659 48.727,1.378l-3.483,-12.873c-13.516,3.611 -27.73,3.206 -41.104,-1.167c-0.011,-0.004 -0.02,-0.007 -0.031,-0.011c-37.474,-12.273 -58.305,-52.714 -46.438,-90.164c5.82,-18.368 18.471,-33.343 35.623,-42.168c17.156,-8.827 36.737,-10.442 55.135,-4.549c0.151,0.047 0.3,0.096 0.451,0.146c18.007,5.897 32.735,18.538 41.505,35.636c8.977,17.498 10.582,37.322 4.523,55.823l-0.783,2.388c-3.572,10.909 -15.385,16.865 -26.331,13.28c-10.947,-3.585 -16.947,-15.376 -13.374,-26.284l13.113,-40.038l-12.706,-4.162l-2.094,6.395c-3.55,-4.527 -8.434,-8.091 -14.306,-10.014c-15.763,-5.163 -32.774,3.416 -37.918,19.123l-4.561,13.926c-5.144,15.707 3.495,32.686 19.258,37.849c9.568,3.134 19.593,1.204 27.148,-4.307c3.594,9.228 11.147,16.849 21.293,20.172c17.953,5.88 37.325,-3.889 43.184,-21.778l0.782,-2.389c3.618,-11.044 4.933,-22.511 3.911,-34.081Zm-71.106,19.099c-2.858,8.726 -12.308,13.492 -21.065,10.624c-8.758,-2.869 -13.557,-12.301 -10.699,-21.027l4.561,-13.927c2.858,-8.726 12.308,-13.492 21.065,-10.624c8.758,2.869 13.557,12.301 10.699,21.028l-4.561,13.926Z" style="fill:#f00;fill-rule:nonzero;"/><path d="M1715.31,563.796l-1456.62,345.446l2.999,12.649l1456.62,-345.445l-2.999,-12.65Z" style="fill:#f00;"/></g><path d="M1745.37,561.522l-27.089,14.271l-3.313,-10.631l30.402,-3.64Z" style="fill:#f00;"/></g><rect x="261" y="792" width="2" height="5" style="fill:#f00;"/></svg>